<svg preserveAspectRatio="none" width="100%" height="100%" overflow="visible" style="display: block;" viewBox="0 0 18.0106 15" fill="none" xmlns="http://www.w3.org/2000/svg">
<path id="Vector" d="M18.0106 7.5H16.0054C16.0054 5.87333 15.329 4.49333 13.9762 3.36C12.6154 2.23333 10.9584 1.67 9.00528 1.67V0C10.254 0 11.4267 0.196667 12.5233 0.59C13.612 0.99 14.5605 1.52667 15.369 2.2C16.1775 2.87333 16.8219 3.66333 17.3021 4.57C17.7744 5.48333 18.0106 6.46 18.0106 7.5ZM14.0122 7.5H12.007C12.007 6.80667 11.7149 6.21667 11.1305 5.73C10.5462 5.24333 9.83777 5 9.00528 5V3.33C10.3901 3.33 11.5708 3.73667 12.5474 4.55C13.5239 5.36333 14.0122 6.34667 14.0122 7.5ZM16.966 15C14.8767 15 12.8155 14.62 10.7823 13.86C8.74913 13.1067 6.89605 12.0367 5.22306 10.65C3.55809 9.25667 2.27333 7.71333 1.3688 6.02C0.456268 4.32667 0 2.61 0 0.870001C0 0.623334 0.100059 0.416667 0.300176 0.25C0.500293 0.0833333 0.752442 0 1.05662 0H5.10299C5.33513 0 5.54325 0.0666674 5.72736 0.200001C5.91147 0.333334 6.01953 0.49 6.05155 0.67L6.69993 3.58C6.73995 3.80667 6.73195 3.99667 6.67592 4.15C6.62789 4.29667 6.53583 4.42667 6.39975 4.54L3.97433 6.58C4.31053 7.09333 4.70676 7.59 5.16303 8.07C5.6273 8.55 6.1316 9.01333 6.67592 9.46C7.19622 9.88667 7.74054 10.2867 8.30887 10.66C8.87721 11.0267 9.47756 11.3633 10.1099 11.67L12.4633 9.71C12.6074 9.58333 12.7995 9.49 13.0396 9.43C13.2878 9.36333 13.5279 9.34333 13.7601 9.37L17.2061 9.96C17.4462 10.0133 17.6383 10.1133 17.7824 10.26C17.9345 10.4067 18.0106 10.57 18.0106 10.75V14.12C18.0106 14.3733 17.9105 14.5833 17.7104 14.75C17.5103 14.9167 17.2621 15 16.966 15ZM3.02577 5L4.68275 3.62L4.25049 1.67H2.02919C2.10924 2.23667 2.22531 2.79667 2.37739 3.35C2.52948 3.91 2.74561 4.46 3.02577 5ZM13.664 11.06L11.983 12.46C12.6314 12.6933 13.2958 12.88 13.9762 13.02C14.6486 13.16 15.325 13.25 16.0054 13.29V11.46L13.664 11.06Z" fill="var(--fill-0, #FFCA03)"/>
</svg>
