<svg preserveAspectRatio="none" width="100%" height="100%" overflow="visible" style="display: block;" viewBox="0 0 20.0037 13.34" fill="none" xmlns="http://www.w3.org/2000/svg">
<path id="Vector" d="M18.0106 13.34H1.99317C1.44885 13.34 0.980575 13.1767 0.588345 12.85C0.196115 12.5233 0 12.13 0 11.67V1.67C0 1.21 0.196115 0.816666 0.588345 0.49C0.980575 0.163333 1.44885 0 1.99317 0H18.0106C18.5549 0 19.0232 0.163333 19.4154 0.49C19.8076 0.816666 20.0037 1.21 20.0037 1.67V11.67C20.0037 12.13 19.8076 12.5233 19.4154 12.85C19.0232 13.1767 18.5549 13.34 18.0106 13.34ZM18.0106 3.34L10.0019 7.5L1.99317 3.34V11.67H18.0106V3.34ZM1.99317 1.67L10.0019 5.84L18.0106 1.67H1.99317Z" fill="var(--fill-0, #FFCA03)"/>
</svg>
