<svg preserveAspectRatio="none" width="100%" height="100%" overflow="visible" style="display: block;" viewBox="0 0 86 86" fill="none" xmlns="http://www.w3.org/2000/svg">
<g id="Group 9233">
<circle id="Ellipse 86" cx="43" cy="43" r="43" fill="var(--fill-0, white)"/>
<path id="Arrow 2" d="M29.8671 53.2505C29.2697 53.8244 29.2506 54.7739 29.8245 55.3714C30.3984 55.9688 31.3479 55.9879 31.9454 55.414L30.9062 54.3322L29.8671 53.2505ZM55.3941 32.2801C55.4107 31.4519 54.7528 30.767 53.9245 30.7503L40.4273 30.479C39.599 30.4624 38.9141 31.1203 38.8974 31.9486C38.8808 32.7768 39.5387 33.4618 40.367 33.4784L52.3645 33.7196L52.1234 45.7171C52.1067 46.5454 52.7647 47.2303 53.5929 47.247C54.4212 47.2636 55.1061 46.6057 55.1228 45.7774L55.3941 32.2801ZM30.9062 54.3322L31.9454 55.414L54.9335 33.3318L53.8944 32.25L52.8552 31.1682L29.8671 53.2505L30.9062 54.3322Z" fill="var(--stroke-0, black)"/>
</g>
</svg>
