<svg preserveAspectRatio="none" width="100%" height="100%" overflow="visible" style="display: block;" viewBox="0 0 86.9243 86.5243" fill="none" xmlns="http://www.w3.org/2000/svg">
<g id="Group 9233">
<ellipse id="Ellipse 86" cx="43.4622" cy="43.2621" rx="43.4622" ry="43.2621" fill="var(--fill-0, black)"/>
<path id="Arrow 2" d="M30.1967 53.5841C29.5979 54.1566 29.5789 55.104 30.1542 55.7001C30.7294 56.2962 31.6812 56.3153 32.2799 55.7428L31.2383 54.6634L30.1967 53.5841ZM55.9767 32.4768C55.9933 31.6505 55.3338 30.9671 54.5036 30.9504L40.9753 30.6784C40.1451 30.6618 39.4586 31.3181 39.442 32.1445C39.4254 32.9708 40.0849 33.6542 40.9151 33.6709L52.9403 33.9126L52.6997 45.8825C52.6831 46.7089 53.3426 47.3923 54.1728 47.409C55.0029 47.4257 55.6894 46.7693 55.706 45.9429L55.9767 32.4768ZM31.2383 54.6634L32.2799 55.7428L55.5151 33.526L54.4735 32.4466L53.4319 31.3672L30.1967 53.5841L31.2383 54.6634Z" fill="var(--stroke-0, #FFCA03)"/>
</g>
</svg>
