<svg preserveAspectRatio="none" width="100%" height="100%" overflow="visible" style="display: block;" viewBox="0 0 403.661 147.012" fill="none" xmlns="http://www.w3.org/2000/svg">
<path id="Ellipse 3" d="M201.831 1C257.479 1.00005 307.816 9.21623 344.204 22.4688C362.402 29.0965 377.059 36.9655 387.147 45.6523C397.239 54.3418 402.661 63.7574 402.661 73.5059C402.661 83.2545 397.239 92.6708 387.147 101.36C377.059 110.047 362.402 117.915 344.204 124.543C307.816 137.796 257.479 146.013 201.831 146.013C146.182 146.013 95.8455 137.796 59.457 124.543C41.2589 117.915 26.6022 110.047 16.5137 101.36C6.42199 92.6708 1 83.2545 1 73.5059C1.00012 63.7574 6.4221 54.3418 16.5137 45.6523C26.6022 36.9655 41.2587 29.0965 59.457 22.4688C95.8455 9.21618 146.183 1 201.831 1Z" stroke="url(#paint0_linear_0_4)" stroke-width="2"/>
<defs>
<linearGradient id="paint0_linear_0_4" x1="201.831" y1="24.9174" x2="201.703" y2="147.012" gradientUnits="userSpaceOnUse">
<stop stop-opacity="0"/>
<stop offset="1" stop-color="#D4D4D4"/>
</linearGradient>
</defs>
</svg>
