<svg preserveAspectRatio="none" width="100%" height="100%" overflow="visible" style="display: block;" viewBox="0 0 32 32" fill="none" xmlns="http://www.w3.org/2000/svg">
<g id="mynaui:message-solid">
<path id="Vector" d="M15.9375 3C12.8482 3 10.4469 3 8.57754 3.2C6.68687 3.404 5.18954 3.82667 3.99487 4.78133C2.76821 5.76267 2.19487 7.03867 1.92421 8.648C1.66687 10.184 1.66688 12.1387 1.66688 14.576V14.82C1.66688 17.196 1.66688 18.84 1.93354 20.0653C2.07754 20.7253 2.30421 21.2987 2.66021 21.8293C3.01221 22.352 3.46021 22.792 3.99487 23.2187C4.83621 23.892 5.82821 24.2987 7.00021 24.552V28C7.00036 28.1752 7.04655 28.3473 7.13413 28.499C7.22172 28.6508 7.34763 28.7768 7.49926 28.8646C7.65089 28.9524 7.82292 28.9987 7.99812 28.9991C8.17332 28.9995 8.34554 28.9538 8.49754 28.8667C9.27887 28.42 9.97087 27.9333 10.6042 27.4747L11.0095 27.18C11.4605 26.8424 11.9212 26.5178 12.3909 26.2067C13.5162 25.476 14.5909 25 16.0002 25H16.0629C19.1522 25 21.5535 25 23.4229 24.8C25.3135 24.596 26.8109 24.1733 28.0055 23.2187C28.5389 22.792 28.9882 22.352 29.3389 21.8293C29.6962 21.2987 29.9229 20.7253 30.0669 20.0653C30.3335 18.84 30.3335 17.196 30.3335 14.82V14.576C30.3335 12.1387 30.3335 10.184 30.0762 8.64933C29.8055 7.03867 29.2322 5.76267 28.0055 4.78133C26.8109 3.82533 25.3135 3.404 23.4229 3.20133C21.5535 3 19.1522 3 16.0629 3H15.9375Z" fill="var(--fill-0, white)"/>
</g>
</svg>
